<?xml version="1.0" encoding="utf-8"?>
<!-- Generator: Adobe Illustrator 27.4.0, SVG Export Plug-In . SVG Version: 6.00 Build 0)  -->
<svg version="1.1" id="Capa_1" xmlns="http://www.w3.org/2000/svg" xmlns:xlink="http://www.w3.org/1999/xlink" x="0px" y="0px"
	 viewBox="0 0 600 600" style="enable-background:new 0 0 600 600;" xml:space="preserve">
<style type="text/css">
	.st0{fill:#1E1E1C;}
</style>
<g>
	<path class="st0" d="M170.6,272.7h51.3v14.6l-4.3-3.4h-27.7v10.7h17.6l4.1-3.4v17.4l-4.1-3.4h-17.6V316h27.7l4.3-3.4v14.6h-51.3
		l3.4-4.1v-46.2L170.6,272.7z"/>
	<path class="st0" d="M228.5,272.7H251l-3.2,4.1V316h25.6l4.7-3.3v14.6h-49.6l3.4-4.1v-46.3L228.5,272.7z"/>
	<path class="st0" d="M305.5,272.7h18.4l26.6,54.5h-22.7l3.2-4.1l-2.4-5.6h-26l-2.8,5.6l3.2,4.1h-19.7l24.2-50.4L305.5,272.7z
		 M306.3,307.5h18.2l-9-19.5L306.3,307.5z"/>
	<path class="st0" d="M387.7,327.3l-16.2-30.5V323l3.5,4.3h-19.4c0-0.1,1.3-1.6,3.9-4.6v-46l-3-4h18.9l17.5,33l16.8-33h19.7
		l-3.7,4.2v47l2.8,3.3h-22.2l3.5-3.8v-25.2l-14.7,29H387.7z"/>
</g>
</svg>
