<?xml version="1.0" encoding="utf-8"?>
<!-- Generator: Adobe Illustrator 27.4.0, SVG Export Plug-In . SVG Version: 6.00 Build 0)  -->
<svg version="1.1" id="Capa_1" xmlns="http://www.w3.org/2000/svg" xmlns:xlink="http://www.w3.org/1999/xlink" x="0px" y="0px"
	 viewBox="0 0 600 600" style="enable-background:new 0 0 600 600;" xml:space="preserve">
<style type="text/css">
	.st0{fill:#1E1E1C;}
</style>
<g>
	<path class="st0" d="M253.6,339c0.6-4.2,1.3-9.6,3.3-15.2c1.8-5.4,4.5-12.8,9.9-15c-6.4-4.6-9.3-11.3-7.8-21.5
		c2.3-19.4,9.7-30,32.1-30c0.1,0,0.2,0,0.3,0c-1.3-9.6,1.7-18.5,6.1-26c-11.1-5.5-19-12.3-17.8-26.8c0.3-3.4,20.2-13.9,23.2-14.4
		h-19.4c-53.3,42.4-64,81.4-56.2,110C231.1,314.4,239.3,327.9,253.6,339z"/>
	<path class="st0" d="M212.2,407.2c-1-0.7-2.5-0.6-3.4,0.2c-0.5,0.5-0.9,1-1.4,1.5c-1.1-0.6-1.9-1.2-2.6-1.7c-1-0.7-2.5-0.6-3.4,0.2
		c-0.5,0.5-1,1.1-1.5,1.6c-1.2-0.7-2.1-1.3-2.9-1.8c-1-0.7-2.5-0.6-3.4,0.2c-7.3,7.3-9.1,17.3-9.1,17.3h7.7h7.3h23.3h7.7h7.3v-9.9
		C224.6,414.9,215.7,409.7,212.2,407.2z"/>
	<path class="st0" d="M231,338.3c-2.1-2.5,1.8-29.5-13.7-22.9c-13.2,5.6-25.5,6-34.8,5.1c2-7,0.3-13.4-0.7-14.2
		c-1.4-1.1-2.6-4.2-4.4-6.6c-0.5-1-1.3-2-2.3-2.8c-3.8-3-13.7,2.4-13.7,2.4s3.9,0,6.2,3c0.9,1.1,2.2,2.2,3.7,3
		c1.1,2.3,1.3,4.5,1.3,4.5s-8,0.9-10.9,6.2c0,0-5.1-3.1-9-2.5c0,0-0.3-4.2-1.2-7.7c3-2.3,5.8-6.6,8.5-6.4c0,0-12.1-3.3-16.5-0.8
		c-1.7,1-2.1,2.5-2,3.9c-0.1,1.3-0.3,3.4-0.4,6.8c-0.3,10.6-6.1,14.5-1.7,16.5c1.2,0.6,3.4,2,6.2,3.5c0.7,0.7,1.7,1.5,3.1,2.4
		c14.5,8.7,50.3,20.4,88.1,17.9c0,0,9.1,0.8-3.7-4.6c0,0,5.8,0.4,7.5-2.5C242.2,339.5,233,340.8,231,338.3z"/>
	<path class="st0" d="M167.3,288.8c0,0-0.5-1.5-1.9-2.1c2.3-2.5,1.4-5.6,1.4-5.6c-0.3,0-0.7,0-1.1,0.1c1.5-2.7,0.6-6,0.6-6
		c-0.4,0-0.8,0-1.3,0.1c-0.5-4.3-3.7-6-3.7-6c-0.3,0.2-0.7,0.6-1,1c-1.2-2.1-3.2-2.9-3.2-2.9c-1.3,0.7-2.1,2.1-2.6,3.3
		c-0.7-0.8-1.2-1.4-1.2-1.4c-2.5,2.2-2.9,5.2-2.8,7c-0.8-0.1-1.4-0.1-1.4-0.1c-0.1,2.8,0.8,4.8,1.6,6.1c-0.7-0.1-1.2-0.1-1.2-0.1
		c-0.1,3,1.2,4.8,2.1,5.8c-0.6,0.4-1.2,1.1-1.6,2.1c0,0,2.5-0.8,4.8,0.3c1.8,0.8,3.1,1.3,3.6,1.5c0.1,2.1,0.5,10,1,13.1
		c0,0,0.1,0.4,0.9,0.1c0.7-0.3,2.1,0.1,2.1,0.1s-1.7-9.5-2.1-13.3c0-0.2,0-0.5-0.1-0.7c0.6-0.3,1.4-0.7,2.1-1.1
		C164.4,289,165.6,288.6,167.3,288.8z"/>
	<path class="st0" d="M516.7,184.5h-137c-6.3,0-11.7,4.4-12.9,10.6c-8,41-37.4,66.7-75.9,66.7c-26.5,0-31.2,14.9-32.4,25.5
		c-1.6,10.9,2.1,18,7.2,22.7c1.9,15.3,8.2,20.2,19.4,21.4c13.5,1.5,19.2,5,23.7-0.8c0,0,8.3-11.1,23.2-13.6c2.4-0.4,4.4-0.8,6.1-1.2
		c0.5-0.1,1-0.2,1.5-0.3c2.9-0.6,5.9-1.5,9.1-2.7l-0.8-2.5c0.7,1.3,2.3,1.9,3.7,1.3c2.6-1.1,5.4-2.4,8.2-4l-2.8-6.9l0.7,1.1
		c1.8,2.9,5.6,3.8,8.5,2c0.8-0.5,1.7-1.1,2.5-1.7l-4.9-10.3l1.2,1.9c2.8,4.2,8.5,5.1,12.4,2c0.9-0.7,1.9-1.5,2.8-2.3l-7.7-12.4
		l3.5,4.3c3.1,3.8,8.7,4.3,12.3,0.9c0.8-0.7,1.6-1.5,2.3-2.2l-11-13.5l6.5,6.3c3.3,3.3,8.7,3.2,11.9-0.2c0.8-0.9,1.7-1.8,2.6-2.7
		l-14.8-14.4l8.2,6.3c1.4,1,9.2,6.1,16.6,0.1c0,0,0.1-0.1,0.1-0.1c0.8-0.7,1.6-1.5,2.4-2.3l-21.8-15.9l10.9,6.5
		c7.9,4.7,17.5,5.6,26.2,2.5c2.1-0.7,4.2-1.4,6.4-2.1l-38.7-19.2l27.2,11.3c10.5,4.4,22.3,4.8,33.1,1.2c3-1,6-2.1,9-3.2l-65.4-21.2
		l58.2,15.7c9,2.4,18.6,1,26.5-3.9l0.1-0.1c3.3-2.1,6.5-4.3,9.5-6.6l-91.9-17.1l83.2,11.5c8.9,1.2,17.9-1.9,24-8.4
		c1.9-2.1,3.8-4.1,5.5-6.2l-111-9l89.9,3.5c17.4,0.7,33.6-9.1,41-24.9c0.1-0.3,0.2-0.4,0.2-0.4C530.7,185.4,516.7,184.5,516.7,184.5
		z"/>
	<path class="st0" d="M347,184.5c0,0-37.8,0-85.2,0c-16.5,0-17.2-9.5-17.2-9.5c0,15.9,13.8,16,15.3,16c1.4,0,35.8,0,38.7,0
		c-2,0-18.2,0.6-19.3,13.8c-1.2,14.1,14.1,19.5,27.4,25.8c13.3,6.2,8.3,13.3,8.3,13.3c6-5,10.9-10.2,14.8-15.3l-0.6-0.8
		c-3.5,2.3-7.4,3.2-11.5,2.1c-6.4-1.6-6-9.4,0.4-16.2c6.4-6.9,12.9-10.2,18.1-10.2c2.8,0,4,2.8,3.7,6.6h1
		C347.2,195.5,347,184.5,347,184.5z M311.4,193.6c-2.5,0-4.6-1.3-5.1-3h10.2C316,192.3,313.9,193.6,311.4,193.6z"/>
	<path class="st0" d="M228.8,247.3c3.7-8,8.6-16,14.6-23.9c-4.7-8.3-8.1-17.8-10.2-28.4c-1.2-6.2-6.6-10.6-12.9-10.6h-137
		c0,0-14,0.9-18.7-7.2c0,0,0.1,0.1,0.2,0.4c7.4,15.8,23.6,25.6,41,24.9l89.9-3.5l-111,9c1.7,2,3.5,4.1,5.5,6.2
		c6.2,6.5,15.1,9.7,24,8.4l83.2-11.5l-91.9,17.1c3,2.3,6.1,4.5,9.5,6.6l0.1,0.1c7.9,4.9,17.5,6.3,26.5,3.9l58.2-15.7l-65.4,21.2
		c3,1.2,6,2.2,9,3.2c10.8,3.6,22.6,3.2,33.1-1.2l27.2-11.3L165,254.4c2.2,0.7,4.3,1.4,6.4,2.1c8.7,3.1,18.3,2.2,26.2-2.5l10.9-6.5
		l-21.8,15.9c0.8,0.8,1.6,1.6,2.4,2.3c0,0,0.1,0.1,0.1,0.1c7.4,6.1,15.2,0.9,16.6-0.1l8.2-6.3L199,273.8c0.9,0.9,1.7,1.8,2.6,2.7
		c3.2,3.4,8.6,3.5,11.9,0.2l6.5-6.3L209,284c0.8,0.8,1.6,1.5,2.3,2.2c2.6,2.4,6.3,2.8,9.3,1.5C219.8,274.6,222.5,260.9,228.8,247.3z
		"/>
	<path class="st0" d="M222.9,301.2c-2.8-10.3-3.1-21.2-1.1-32.2c-6.7,17.2-10.4,37.4-5.8,59.7c5.2,25.4,16.9,19.1,26.6,6.7
		C233,325.8,226.4,314.4,222.9,301.2z"/>
	<path class="st0" d="M309.1,329.8c-4.5,5.8-18.3,1.4-23.3-2c-11.3-7.6-7.7-13-3.3-20.4c4.6-7.6,32.4-5.5,42.6,0.1
		c2.5-10.5,0.6-21.7-9.7-28.4c-17.8-11.5-51.1,14.7-55.2,45.2s-5.9,36.2-5.9,36.2s-23.7,27.1-42.4,64.2h32.7c0,0,9-21,27.5-39.5
		c18.2-18.2,32.6-25.1,36.4-33.5c0,0-7.2,0.3-11.2,3.1c0,0,5.3-4.7,5.6-7.8c0,0-5,1.2-7.2,2.8c0,0,6.5-11.2,18.4-22.8
		c0.2-0.2,0.4-0.4,0.6-0.6C310.9,328.4,309.1,329.8,309.1,329.8z"/>
	<path class="st0" d="M467.1,264c4.6-2.9,9.1-6.8,9.1-6.8c-4.3,0.5-7.7,2.2-10.3,3.9c0.6-1,1.1-2.1,1.5-3.2c0,0-6.5,2.4-11.6,8.4
		c0.8-2.4,1.9-4.4,1.9-4.4s-6.3,3.7-10,10.9c1.2-4.5,1.6-6.7,2.9-8.7c-0.2,0.5-7.9,5.2-11,17.1c0,0,0,0-0.1,0
		c0.2-1.2,0.3-2.4,0.3-3.4c0-3.5,0.1-5.8,0.6-7.1c0,0-7,6.5-8.2,17.1c0-0.5,0-1,0-1.5c-0.1-4.7-0.7-8.4-0.3-10c0,0-5,4.8-5.6,15.7
		c-0.1,1.4-0.1,2.5-0.1,3.5c-0.1-0.5-0.1-0.9-0.3-1.4c-1.3-5.2-1.6-6.9-2.2-8c0,0-2.2,3.3-2.8,10.7c-0.1,1-0.1,1.8-0.1,2.6
		c-1.1-1.5-2.4-2.9-2.4-2.9s0.7,1.2,0.2,3.9c-0.4,1.9,0.1,4.2,1.2,5.2c-0.2,0.1-0.4,0.3-0.5,0.5c-1.1,1.1-1.2,1.9-1,2.3
		c-0.5,1-1,2-1.5,3c-6.5,13.7-3.8,28.3,5.1,40.2c7.2,9.7,16,19.9,16.3,32.4c0,16.8-16,28.7-32.1,27.9c-4-0.2-7.9-0.4-10-2.8
		c-1.1-2.1-0.3-5.1,0.7-7.6c0.1-0.2,0.1-0.3,0.2-0.5c0.1-0.4,0.3-0.7,0.4-1c0,0,0,0,0,0c3.9-9.7,6.4-18.5,7.3-26.3
		c1.2-7.8,0.9-16.3-1.9-25.1c-6.7-20.7-23.7-27.5-44.1-35.6c-1.6,0.8-3.1,1.5-4.6,2.2l0,0.1l-4,1.5c-3.3,1.2-6.6,2.2-9.7,2.9
		c-3.4,0.7-6.7,1.4-9.9,1.9c0,0,0,0,0,0c-8.8,1.6-14.8,4.2-18.2,6c-3.6,3.8-6.1,9.4-7.3,14.2l2.8-0.7l-0.6,6.2
		c0.4,0,0.8-0.1,0.9-0.1l7.3-0.3l-3,6.7c-1.3,2.9-3.5,5.6-6.4,8.3c4.2,1,8.6,1.8,13.2,2.6c4.8,0.8,9.3,1.7,13.5,2.7
		c-5.6-9.8-8.9-20.1-8.9-33.4V331l2.1-1c0.4-0.3,10.4-4.7,26.5-3.2c3.7,0.3,6.9,1,9.7,2c-20.6-3.3-33.8,5-33.8,5
		c0,20.7,8.2,33.4,24.1,52.9c10.1,12.4,15.4,21.4,18.3,27.5c-11.3-1.1-22-3.5-29.9-7c-1.1-0.5-2.5-0.6-3.4,0.2
		c-0.2,0.2-0.4,0.4-0.5,0.6c-0.6-0.3-1.3-0.5-1.9-0.8c-1.1-0.5-2.5-0.6-3.4,0.2c-0.2,0.2-0.4,0.4-0.5,0.6c-0.6-0.3-1.3-0.5-1.9-0.8
		c-1.1-0.5-2.5-0.6-3.4,0.2c-7.3,7.3-9.1,17.3-9.1,17.3h5.8h5.8h45.1h5.8h4.3c0,0,0,0,0-0.1h0c0-1.5-0.1-3-0.2-4.5
		c0-0.3,0-0.5,0-0.8c-0.8-16.5-3.6-33-11.6-47.6c-3.1-5.6-6.7-11-10.5-16.2c-0.1-0.1-0.1-0.3,0-0.4c0.1-0.1,0.3-0.1,0.4,0
		c17.7,20.2,24.3,39.9,27,65.3c1,0.7,2.2,1.4,3.4,2c4.7,2.1,9.2,2.5,13.9,2.4c13.2,0,26.6-5.8,34.7-16.5
		c15.2-20.8,6.6-40.4-9.2-57.4c-2.6-3-5-5.4-7-8.3c-7.5-10-7.9-22.7-3.7-34.1c1.1-0.4,2.6-1,4.3-2.4c2-1.8,2.9-2.7,2.9-2.7
		s-1.5,0-3.3,0.3c0,0,0-0.1,0.1-0.1c6.9-1.8,12-6.8,12-6.8c-1.1,0.7-3.2,1-5,1.1c-0.1,0-0.2,0-0.2,0c1.2-0.6,2.2-1.1,2.6-1.3
		c1.9-1,5.5-2.6,10.9-6.4c0,0-2.7,0.1-6.5,0.1c3.1-1.7,6.5-3.8,7.8-4.8c2.3-1.7,6.2-3.1,6.2-3.1s-2.1,0.6-4.8,0.7
		c-1,0-2.1,0.1-3.3,0.2c5.7-2.7,13.8-7.2,13.8-7.2s-2.3,1.1-7.1,1.6c8.6-4.3,19.3-11.3,19.3-11.3s-2.6,1.1-6.4,2.4
		c4.3-2.7,7.9-5.5,7.9-5.5C470.1,263.5,468.5,263.8,467.1,264z"/>
	<path class="st0" d="M320.5,380.7c12.5,9.8,20.5,17.6,25.5,23.6c4.8,1.8,10.6,3.2,16.9,4.3c-3-5-7.4-11.3-13.6-19
		c-4.8-6-9.2-11.5-12.8-16.9c-5.3-1.4-11.1-2.6-17.7-3.7c-4-0.7-7.8-1.4-11.5-2.2C310.1,371.3,314.3,375.9,320.5,380.7z"/>
	<path class="st0" d="M312.6,424c0.1-0.4,1.5-8.1,6.7-15.4c-1.2-0.4-2.3-0.9-3.3-1.3c-1.1-0.5-2.5-0.6-3.4,0.2
		c-0.2,0.2-0.4,0.4-0.5,0.6c-0.6-0.3-1.3-0.5-1.9-0.8c-1.1-0.5-2.5-0.6-3.4,0.2c-0.2,0.2-0.4,0.4-0.5,0.6c-0.6-0.3-1.3-0.5-1.9-0.8
		c-1.1-0.5-2.5-0.6-3.4,0.2c-7.3,7.3-9.1,17.3-9.1,17.3h5.8h5.8h8.9L312.6,424z"/>
</g>
</svg>
