<svg id="Capa_1" data-name="Capa 1" xmlns="http://www.w3.org/2000/svg" viewBox="0 0 418.43 419.04"><defs><style>.cls-1{fill:#1d1d1b;}</style></defs><path class="cls-1" d="M231.18,275.86a183.57,183.57,0,0,1,16.5,14.36,3,3,0,0,1,.31,0,6.12,6.12,0,0,1,2.5.57c5.4,2.39,12.69,4.23,20.69,5.36a112.44,112.44,0,0,0-16-18.56c-7-6.73-11.75-12.66-15.05-18.28-3.2-.71-6.57-1.38-10.21-2-5-.82-9.78-1.82-14.37-2.92C217.25,261.31,221.48,268.31,231.18,275.86Z" transform="translate(-3.78 -3.48)"/><path class="cls-1" d="M211.06,292.92a2.63,2.63,0,0,0-3,.2c-.32.31-.62.63-.91.95-1-.37-2-.75-2.88-1.15a2.64,2.64,0,0,0-3,.2c-6.5,6.46-8.06,15.4-8.06,15.4h28.46l.07-.41a35.11,35.11,0,0,1,5.15-12.31,62.78,62.78,0,0,1-8.21-2.88,2.64,2.64,0,0,0-3,.2c-.39.39-.76.78-1.12,1.19C213.34,293.87,212.16,293.41,211.06,292.92Z" transform="translate(-3.78 -3.48)"/><polygon class="cls-1" points="132.9 337.99 136.72 341 136.72 328.01 91.12 328.01 94.13 331.66 94.13 372.81 91.12 376.46 136.72 376.46 136.72 363.47 132.9 366.48 108.26 366.48 108.26 356.97 123.93 356.97 127.58 359.99 127.58 344.49 123.93 347.5 108.26 347.5 108.26 337.99 132.9 337.99"/><polygon class="cls-1" points="142.66 376.49 186.82 376.49 186.82 363.5 182.64 366.48 159.84 366.48 159.84 331.66 162.65 328.01 142.66 328.01 145.68 331.66 145.68 372.84 142.66 376.49"/><path class="cls-1" d="M255,380l-23.67-48.51H215l1.64,3.65L195.13,380h17.51l-2.85-3.68,2.51-5h23.17l2.18,5L234.8,380Zm-39.34-17.51,8.17-17.34,8,17.34Z" transform="translate(-3.78 -3.48)"/><path class="cls-1" d="M325.2,331.49H307.66l-14.93,29.33-15.57-29.33H260.32L263,335v40.91c-2.3,2.66-3.45,4-3.45,4.05h17.28l-3.15-3.78v-23.3L288,380h6.73l13.06-25.78v22.4L304.75,380h19.72l-2.52-3V335.24Z" transform="translate(-3.78 -3.48)"/><polygon class="cls-1" points="74.3 404.95 79.75 404.95 79.75 418.75 83.68 418.75 83.68 404.95 89.13 404.95 89.13 401.74 74.3 401.74 74.3 404.95"/><polygon class="cls-1" points="103.02 408.45 95.3 408.45 95.3 401.74 91.36 401.74 91.36 418.75 95.3 418.75 95.3 411.78 103.02 411.78 103.02 418.75 106.96 418.75 106.96 401.74 103.02 401.74 103.02 408.45"/><polygon class="cls-1" points="115.16 411.66 123.06 411.66 123.06 408.59 115.16 408.59 115.16 404.9 124.11 404.9 124.11 401.74 111.25 401.74 111.25 418.75 124.42 418.75 124.42 415.59 115.16 415.59 115.16 411.66"/><path class="cls-1" d="M151.68,413.54a4.1,4.1,0,0,0-.53-.15A4.33,4.33,0,0,0,152.8,412a4,4,0,0,0,.65-2.32,3.81,3.81,0,0,0-1.61-3.21,8,8,0,0,0-4.83-1.21H138.7v17h8.8a8.71,8.71,0,0,0,5.08-1.23,3.93,3.93,0,0,0,1.72-3.41,4.35,4.35,0,0,0-.69-2.5A4.27,4.27,0,0,0,151.68,413.54Zm-5.15-5.36a4.07,4.07,0,0,1,2.2.5,1.66,1.66,0,0,1,.76,1.5,1.7,1.7,0,0,1-.76,1.52,4.08,4.08,0,0,1-2.2.49h-3.92v-4Zm3,10.59a4.42,4.42,0,0,1-2.32.5h-4.6v-4.21h4.6a4.31,4.31,0,0,1,2.32.52,2,2,0,0,1,0,3.19Z" transform="translate(-3.78 -3.48)"/><polygon class="cls-1" points="157.76 411.66 165.66 411.66 165.66 408.59 157.76 408.59 157.76 404.9 166.7 404.9 166.7 401.74 153.85 401.74 153.85 418.75 167.02 418.75 167.02 415.59 157.76 415.59 157.76 411.66"/><polygon class="cls-1" points="174.46 411.66 182.35 411.66 182.35 408.59 174.46 408.59 174.46 404.9 183.4 404.9 183.4 401.74 170.54 401.74 170.54 418.75 183.72 418.75 183.72 415.59 174.46 415.59 174.46 411.66"/><path class="cls-1" d="M202.32,416.76a5.65,5.65,0,0,0,2.55-2.1,5.83,5.83,0,0,0,.9-3.27,6,6,0,0,0-.9-3.31,5.76,5.76,0,0,0-2.55-2.12,9.44,9.44,0,0,0-3.93-.74H191v17H195v-4.74h3.6l3.28,4.75h4.25l-3.8-5.46Zm-1.43-7.56a3.1,3.1,0,0,1,0,4.37,4.07,4.07,0,0,1-2.72.79H195v-5.93h3.21A4.12,4.12,0,0,1,200.89,409.2Z" transform="translate(-3.78 -3.48)"/><polygon class="cls-1" points="228.29 401.74 223.91 401.74 216.38 409.68 216.38 401.74 212.46 401.74 212.46 418.75 216.38 418.75 216.38 414.46 218.66 412.08 224.11 418.75 228.7 418.75 221.24 409.32 228.29 401.74"/><rect class="cls-1" x="230.76" y="401.74" width="3.94" height="17.01"/><polygon class="cls-1" points="250.69 412.06 242.23 401.74 238.97 401.74 238.97 418.75 242.86 418.75 242.86 408.43 251.34 418.75 254.57 418.75 254.57 401.74 250.69 401.74 250.69 412.06"/><path class="cls-1" d="M267.15,409.79a5,5,0,0,1,1.76-1.12,6.31,6.31,0,0,1,2.26-.39,5.75,5.75,0,0,1,4.4,1.92l2.53-2.33a8,8,0,0,0-3.05-2.19,11.34,11.34,0,0,0-7.81-.11,8.83,8.83,0,0,0-3,1.83,8.41,8.41,0,0,0-1.95,2.8,9.23,9.23,0,0,0,0,7.05,8.39,8.39,0,0,0,1.94,2.79,8.57,8.57,0,0,0,2.94,1.84,10.32,10.32,0,0,0,3.71.64,12.22,12.22,0,0,0,3.65-.56,10,10,0,0,0,3.22-1.6v-6.9h-3.59v5a5.61,5.61,0,0,1-.79.37,7.07,7.07,0,0,1-2.27.38,6.1,6.1,0,0,1-2.23-.39,5.12,5.12,0,0,1-1.75-1.13,5.26,5.26,0,0,1-1.14-1.74,5.72,5.72,0,0,1-.4-2.18,5.85,5.85,0,0,1,.4-2.22A5.07,5.07,0,0,1,267.15,409.79Z" transform="translate(-3.78 -3.48)"/><path class="cls-1" d="M294.3,406.28a10.73,10.73,0,0,0-4.89-1.06h-7.73v17h7.73a10.73,10.73,0,0,0,4.89-1.06,8,8,0,0,0,3.3-3,9.07,9.07,0,0,0,0-9A8,8,0,0,0,294.3,406.28Zm-.19,10.24a4.69,4.69,0,0,1-1.94,1.83,6.38,6.38,0,0,1-2.95.65h-3.6V408.45h3.6a6.51,6.51,0,0,1,2.95.64,4.69,4.69,0,0,1,1.94,1.83,5.95,5.95,0,0,1,0,5.6Z" transform="translate(-3.78 -3.48)"/><path class="cls-1" d="M317,407.43a9.05,9.05,0,0,0-2.95-1.85,10.27,10.27,0,0,0-3.7-.65,10.39,10.39,0,0,0-3.7.65,9.1,9.1,0,0,0-3,1.85,8.55,8.55,0,0,0-2,2.79,9.22,9.22,0,0,0,0,7,8.46,8.46,0,0,0,1.95,2.8,8.89,8.89,0,0,0,3,1.85,10.51,10.51,0,0,0,3.73.65,10.2,10.2,0,0,0,3.68-.65A9,9,0,0,0,317,420a8.46,8.46,0,0,0,2-2.79,8.7,8.7,0,0,0,.71-3.51,8.53,8.53,0,0,0-2.66-6.3Zm-1.73,8.51a5.14,5.14,0,0,1-1.13,1.72,5,5,0,0,1-1.69,1.12,5.88,5.88,0,0,1-4.21,0,4.76,4.76,0,0,1-1.69-1.12,5.16,5.16,0,0,1-1.12-1.74,6.28,6.28,0,0,1,0-4.41,5,5,0,0,1,1.13-1.72,4.94,4.94,0,0,1,1.69-1.12,5.88,5.88,0,0,1,4.21,0,4.85,4.85,0,0,1,1.69,1.12,5.17,5.17,0,0,1,1.12,1.72,6.33,6.33,0,0,1,0,4.43Z" transform="translate(-3.78 -3.48)"/><polygon class="cls-1" points="334.96 401.74 328.69 412.3 322.32 401.74 319.06 401.74 319.06 418.75 322.75 418.75 322.75 408.76 327.74 416.95 329.51 416.95 334.52 408.54 334.54 418.75 338.24 418.75 338.19 401.74 334.96 401.74"/><polygon class="cls-1" points="72.67 312.49 78.41 318.21 334.09 318.21 339.86 312.47 72.67 312.47 72.67 312.49"/><polygon class="cls-1" points="78.41 386.33 78.41 386.33 72.67 392.04 72.67 392.07 339.87 392.07 334.1 386.33 78.41 386.33"/><path class="cls-1" d="M156.81,241.67s8.13.74-3.32-4.06c0,0,5.17.36,6.65-2.22.61-1.08-.44-1.51-2-1.82a51.19,51.19,0,0,0,4.89-5.78,66,66,0,0,1-17-29.47c-4-14.87-2.29-30.61,5.17-46.79a111.75,111.75,0,0,1,12.44-20.4,83.4,83.4,0,0,1-10-26.73A11.71,11.71,0,0,0,142.16,95H20.41S7.94,95.8,3.78,88.59c0,0,.06.14.18.39a38.55,38.55,0,0,0,36.42,22.15l79.93-3.08-98.63,8c1.52,1.81,3.15,3.65,4.88,5.48A24.7,24.7,0,0,0,47.93,129l74-10.26L40.18,133.93c2.65,2,5.45,4,8.41,5.85l.12.07a29.9,29.9,0,0,0,23.55,3.48L124,129.41,65.82,148.29c2.66,1.05,5.32,2,8,2.88a41.94,41.94,0,0,0,29.42-1.07L127.42,140,93,157.13c1.93.61,3.81,1.23,5.65,1.88a27.46,27.46,0,0,0,23.3-2.26l9.65-5.77-19.36,14.15c.69.72,1.41,1.41,2.15,2.08l.09.07c6.55,5.38,13.54.82,14.74-.05l7.25-5.62-13.18,12.78c.76.83,1.52,1.63,2.28,2.42a7.46,7.46,0,0,0,10.6.18l5.74-5.61-9.77,12c.7.67,1.4,1.33,2.09,2a7.4,7.4,0,0,0,4.21,1.94,89.28,89.28,0,0,0-1.61,25.06,63.4,63.4,0,0,1-28.33,3.5c1.75-6.18.29-11.93-.58-12.63-1.24-1-2.38-3.77-4-5.93a7.21,7.21,0,0,0-2-2.38c-3.11-2.4-10.65,1.32-12,2-.39-2.38-.8-5-.94-6.56,0-.22,0-.42-.07-.62.57-.26,1.23-.59,1.91-1a6.37,6.37,0,0,1,4.19-1.09,3.38,3.38,0,0,0-1.71-1.85,5.65,5.65,0,0,0,1.24-5,3.27,3.27,0,0,0-1,.07,7.94,7.94,0,0,0,.6-5.38,3,3,0,0,0-1.14.1,7.35,7.35,0,0,0-3.25-5.38,3.78,3.78,0,0,0-.87,1,6.47,6.47,0,0,0-2.86-2.62,5.66,5.66,0,0,0-2.32,3c-.64-.74-1.11-1.21-1.11-1.21a7.9,7.9,0,0,0-2.52,6.21c-.72-.11-1.21-.14-1.21-.14a9,9,0,0,0,1.46,5.42c-.65-.08-1.09-.1-1.09-.1a6.47,6.47,0,0,0,1.89,5.13,4,4,0,0,0-1.41,1.83,6.63,6.63,0,0,1,4.28.26c1.62.75,2.8,1.18,3.24,1.33,0,1.1.2,3.92.39,6.64-2.53-.62-10.59-2.39-13.84-.54a3.45,3.45,0,0,0-1.81,3.47c-.12,1.17-.23,3-.32,6-.27,9.43-5.4,12.89-1.52,14.69,1.05.49,3,1.74,5.52,3.14a13.37,13.37,0,0,0,2.75,2.08C91.37,233.52,123.19,243.89,156.81,241.67ZM87.72,197.24c.14,1.85.3,3.62.48,4.73,0,0,.11.38.76.07a3.44,3.44,0,0,1,1.91.12s-.43-2.37-.88-5.1a7.4,7.4,0,0,1,5.25,2.62,9.29,9.29,0,0,0,3.31,2.63,13.45,13.45,0,0,1,1.17,4s-7.06.83-9.7,5.54c0,0-4.57-2.77-8-2.22a42.51,42.51,0,0,0-1-6.83C83.37,201,85.57,197.78,87.72,197.24Z" transform="translate(-3.78 -3.48)"/><path class="cls-1" d="M405.59,95H283.84a11.71,11.71,0,0,0-11.49,9.43c-7.12,36.43-33.27,59.3-67.41,59.3-17.81,0-24.62,7.54-27.37,15.29,2.06-8.58,8.13-18,27.8-18.13-1.65-9.31,1.36-17.94,5.76-25.08-9-5.27-17.41-10.9-16.64-20.26.76,10.77,13.38,15.3,24.4,20.47,11.83,5.54,7.39,11.82,7.39,11.82a87.59,87.59,0,0,0,13.17-13.57l-.58-.72a12.41,12.41,0,0,1-10.19,1.91c-5.69-1.44-5.35-8.31.37-14.41s11.46-9,16.08-9c2.46,0,3.53,2.46,3.26,5.84h.88c5.7-13,5.46-22.84,5.46-22.84H179c-14.68,0-15.24-8.4-15.24-8.4,0,14.13,12.27,14.22,13.58,14.22h19.86c-46.38,37.33-55.71,71.69-48.87,96.91C152,211.17,159.86,223.79,174,234c.94-3.86,2.1-8.49,3.53-14-3.53,26.48-5.17,31.4-5.17,31.4a303.46,303.46,0,0,0-30.13,43.15c-1.09-.63-2-1.22-2.69-1.69a2.37,2.37,0,0,0-3,.2,24.86,24.86,0,0,0-1.95,2.19,33.73,33.73,0,0,1-4-2.39,2.37,2.37,0,0,0-3,.2,24.86,24.86,0,0,0-2,2.19,32.93,32.93,0,0,1-4-2.39,2.37,2.37,0,0,0-3,.2c-6.49,6.46-8.06,15.4-8.06,15.4h24.13l0,0h29.1a126.6,126.6,0,0,1,24.48-35.1c16.16-16.16,29-22.27,32.33-29.75,0,0-6.37.28-10,2.77,0,0,4.71-4.15,5-6.93,0,0-4.44,1.11-6.38,2.5A100.24,100.24,0,0,1,219,228.83a27.39,27.39,0,0,0-3.64,8.35l2.92-.73-.33,3.34a6.38,6.38,0,0,1-.52,1.88,30,30,0,0,1,3.06-.32l3.81-.16-1.55,3.48c-1.17,2.64-3.28,5-6.11,7.57,4.34,1,8.91,1.95,13.74,2.74,2.91.48,5.66,1,8.3,1.55-5.34-10.43-5.77-20.06-5.77-32.2v-1.61l1.5-.59c.32-.13,8-2.75,19.86-2.25a39.6,39.6,0,0,1,15.32,3.26c-20-4.42-34.31,1.19-34.31,1.19,0,18.39.55,31.2,21.61,51.54,10.43,10.07,15.92,17.79,18.85,23.2-9.87-1-19.27-3.08-26.17-6.14a2.64,2.64,0,0,0-3,.2c-.39.38-.76.78-1.11,1.18-1.22-.44-2.41-.89-3.51-1.38a2.63,2.63,0,0,0-3,.2c-.31.31-.6.62-.89.94-1-.37-2-.74-2.9-1.14a2.64,2.64,0,0,0-3,.2c-6.5,6.46-8.06,15.4-8.06,15.4h64.77c.28-1.95.47-3.91.59-5.88a15.22,15.22,0,0,0,5.39,3.93,26.06,26.06,0,0,0,9.35,2.08q1.68.1,3.39.09c11.72,0,23.61-5.2,30.8-14.67,13.51-18.51,5.84-35.89-8.21-51a75.69,75.69,0,0,1-6.26-7.42c-6.66-8.86-7-20.17-3.31-30.3a9.57,9.57,0,0,0,3.78-2.15c1.74-1.57,2.55-2.37,2.55-2.37a21.76,21.76,0,0,0-3,.27L324,201a27.34,27.34,0,0,0,10.7-6.05,9.82,9.82,0,0,1-4.45.95H330c1.06-.52,1.94-1,2.32-1.19a68.23,68.23,0,0,0,9.69-5.69s-2.42.06-5.8.06a70.59,70.59,0,0,0,7-4.29,25.7,25.7,0,0,1,5.48-2.8,18.85,18.85,0,0,1-4.23.64c-.91,0-1.91.09-3,.19,5-2.42,12.28-6.4,12.28-6.4a22.7,22.7,0,0,1-6.35,1.38,193.56,193.56,0,0,0,17.14-10.07s-2.31,1-5.71,2.1c3.85-2.41,7-4.89,7-4.89-1.67.26-3.08.48-4.37.71a90.8,90.8,0,0,0,8.16-6,21.29,21.29,0,0,0-9.12,3.49,19.23,19.23,0,0,0,1.29-2.87,28.4,28.4,0,0,0-10.35,7.46,29.89,29.89,0,0,1,1.67-3.95,26.12,26.12,0,0,0-8.85,9.7c1.07-4,1.46-6,2.6-7.7A28,28,0,0,0,337.09,181L337,181a16.1,16.1,0,0,0,.31-3.05c0-3.08.05-5.19.57-6.34a26.11,26.11,0,0,0-7.28,15.3c0-.46,0-.91,0-1.36-.1-4.2-.6-7.48-.26-8.88,0,0-4.48,4.22-5,13.94-.07,1.26-.08,2.33-.07,3.23h0a9.56,9.56,0,0,0-.23-1.37c-1.17-4.66-1.46-6.11-1.92-7.15,0,0-1.93,2.89-2.5,9.53-.07.86-.1,1.61-.09,2.28-.94-1.3-2.09-2.58-2.09-2.58s.64,1.06.16,3.47a5.26,5.26,0,0,0,1,4.39c-.21.33-.42.65-.62,1a3,3,0,0,0-.64,1.14c-.58,1.05-1.13,2.12-1.62,3.23-5.79,12.13-3.34,25.11,4.51,35.69,6.43,8.6,14.22,17.7,14.46,28.79,0,14.92-14.2,25.49-28.49,24.83-.79,0-1.57-.09-2.33-.15-2.56-.24-4.84-.75-6.22-2.32-1-1.92-.19-4.74.73-7l.06-.16c.13-.32.27-.62.4-.91l0,0c3.45-8.66,5.72-16.42,6.5-23.34a48.5,48.5,0,0,0-1.73-22.26c-6.16-18.95-21.91-24.82-40.78-32.26l-.1,0-.64.29-.86.39-.09,0c-.8.33-1.67.67-2.54,1h0l-.16.05c-.9.34-1.81.68-2.63,1l0-.1c-1.84.6-3.64,1.12-5.33,1.5-.93.2-1.8.35-2.71.53a39.76,39.76,0,0,1-6.73,1.5l-.32.06a49.21,49.21,0,0,0-14.58,5.14h0l-.43.24-.8.45-.57.34-.55.33h0c-.94.59-1.72,1.12-2.31,1.55a35.3,35.3,0,0,1,19-10.34c2.22-.39,4-.77,5.57-1.15.39-.08.77-.14,1.17-.23a61.46,61.46,0,0,0,8.1-2.42l-.67-2.22a2.61,2.61,0,0,0,3.3,1.18,78.11,78.11,0,0,0,7.32-3.54l-2.46-6.13.61,1a5.42,5.42,0,0,0,7.54,1.76c.74-.47,1.5-1,2.26-1.48l-4.34-9.13L271,192a7.58,7.58,0,0,0,11,1.77c.82-.65,1.65-1.32,2.5-2l-6.8-11,3.07,3.84a7.51,7.51,0,0,0,11,.83c.69-.64,1.39-1.3,2.09-2l-9.77-12,5.74,5.61a7.46,7.46,0,0,0,10.6-.18c.75-.79,1.52-1.59,2.28-2.42l-13.18-12.78,7.25,5.62c1.2.87,8.19,5.43,14.74.05l.09-.07c.74-.67,1.46-1.36,2.15-2.08L294.42,151l9.65,5.77a27.46,27.46,0,0,0,23.3,2.26c1.84-.65,3.72-1.27,5.64-1.88L298.58,140,322.8,150.1a41.94,41.94,0,0,0,29.42,1.07c2.64-.88,5.3-1.83,8-2.88l-58.13-18.88,51.69,13.92a29.9,29.9,0,0,0,23.55-3.48l.12-.07c3-1.84,5.76-3.81,8.41-5.85l-81.71-15.17,74,10.26a24.7,24.7,0,0,0,21.37-7.49c1.73-1.83,3.36-3.67,4.88-5.48l-98.63-8,79.93,3.08A38.55,38.55,0,0,0,422,89c.12-.25.18-.39.18-.39C418.06,95.8,405.59,95,405.59,95Zm-177.86,5.45c-.51,1.51-2.35,2.64-4.56,2.64s-4-1.13-4.55-2.64Zm61.63,180.36-.22-.13c-.11.2-.36.64-.46.84-.27.52-.52,1.05-.76,1.58a57.09,57.09,0,0,0-9.83-21.88c-3.52-4.59-7.56-9-10.29-14.17-.08-.15.16-.31.25-.15,3,5.11,7.07,9.2,10.84,13.71A58.16,58.16,0,0,1,289.36,280.78Z" transform="translate(-3.78 -3.48)"/><path class="cls-1" d="M185.38,53.26a1.58,1.58,0,1,0,0,3.16h53.68a1.58,1.58,0,0,0,0-3.16Z" transform="translate(-3.78 -3.48)"/><path class="cls-1" d="M239.07,51.19l7-16.68v0a29.77,29.77,0,0,0-10.91,9.25c.45-9.41-4.4-17.62-4.4-17.62a36.79,36.79,0,0,0-9.91,11.61c-1.92-10-8.71-17.4-8.71-17.4s-6.79,7.42-8.71,17.38a36.75,36.75,0,0,0-9.9-11.59s-4.85,8.21-4.4,17.62a29.77,29.77,0,0,0-10.91-9.25v0l7.05,16.68Z" transform="translate(-3.78 -3.48)"/><path class="cls-1" d="M237,38.41A32,32,0,0,1,242,34.49c0-6.37-4.13-11.7-4.13-11.7a24.12,24.12,0,0,0-3.85,5.1A38.72,38.72,0,0,1,237,38.41Z" transform="translate(-3.78 -3.48)"/><path class="cls-1" d="M215.81,21.6a42.92,42.92,0,0,1,5.83,11,39.9,39.9,0,0,1,5.41-6.05,37.47,37.47,0,0,0-6.86-11.51A36.29,36.29,0,0,0,215.81,21.6Z" transform="translate(-3.78 -3.48)"/><path class="cls-1" d="M197.28,26.53a40.6,40.6,0,0,1,5.44,6.06,43.32,43.32,0,0,1,5.8-11,36.83,36.83,0,0,0-4.39-6.57A37.48,37.48,0,0,0,197.28,26.53Z" transform="translate(-3.78 -3.48)"/><path class="cls-1" d="M190.36,27.94a23.85,23.85,0,0,0-3.88-5.15s-4.1,5.31-4.12,11.67a32.8,32.8,0,0,1,5,3.95A38.34,38.34,0,0,1,190.36,27.94Z" transform="translate(-3.78 -3.48)"/><path class="cls-1" d="M209.89,19.83c.41-.5.71-.84.76-.9l1.52-1.66,1.53,1.66c.05.06.34.39.74.88a38.76,38.76,0,0,1,4.21-6.14l.62-.7a33.66,33.66,0,0,0-7.09-9.49A33.6,33.6,0,0,0,205.07,13l.6.68A37.87,37.87,0,0,1,209.89,19.83Z" transform="translate(-3.78 -3.48)"/><path class="cls-1" d="M229.6,24.44l1.83-1.31,1.15,1.94.33.6a25.69,25.69,0,0,1,1.71-2.36,22.86,22.86,0,0,0-6.19-10.64,24,24,0,0,0-3,6,38.89,38.89,0,0,1,3.28,6.5C229.21,24.73,229.54,24.48,229.6,24.44Z" transform="translate(-3.78 -3.48)"/><path class="cls-1" d="M191.79,25.07l1.14-1.94,1.84,1.31.86.67a38.85,38.85,0,0,1,3.31-6.53,24.31,24.31,0,0,0-3-5.91,22.69,22.69,0,0,0-6.2,10.69c.52.66,1.1,1.44,1.69,2.35C191.62,25.36,191.76,25.12,191.79,25.07Z" transform="translate(-3.78 -3.48)"/><path class="cls-1" d="M202.36,13.92l.4-.92A28.94,28.94,0,0,1,205,8.86c-.58-1-1-1.63-1-1.63a24,24,0,0,0-4.86,6.69,27.4,27.4,0,0,1,1.22,2.57C201.25,15.24,202,14.34,202.36,13.92Z" transform="translate(-3.78 -3.48)"/><path class="cls-1" d="M222,14c.39.44,1.11,1.33,2,2.55a27.62,27.62,0,0,1,1.26-2.64,24.35,24.35,0,0,0-4.86-6.67s-.45.63-1,1.66A29.21,29.21,0,0,1,221.58,13Z" transform="translate(-3.78 -3.48)"/></svg>