<?xml version="1.0" encoding="utf-8"?>
<!-- Generator: Adobe Illustrator 27.4.0, SVG Export Plug-In . SVG Version: 6.00 Build 0)  -->
<svg version="1.1" id="Capa_1" xmlns="http://www.w3.org/2000/svg" xmlns:xlink="http://www.w3.org/1999/xlink" x="0px" y="0px"
	 viewBox="0 0 600 600" style="enable-background:new 0 0 600 600;" xml:space="preserve">
<style type="text/css">
	.st0{fill:#1E1E1C;}
</style>
<path class="st0" d="M253.9,275.6c0.6-4.2,1.3-9.6,3.3-15.2c1.8-5.4,4.5-12.8,9.9-15c-6.4-4.6-9.3-11.3-7.8-21.5
	c2.3-19.4,9.7-30,32.1-30c0.1,0,0.2,0,0.3,0c-1.3-9.6,1.7-18.5,6.1-26c-11.1-5.5-19-12.3-17.8-26.8c0.3-3.4,20.2-13.9,23.2-14.4
	h-19.4c-53.3,42.4-64,81.4-56.2,110C231.5,251,239.6,264.4,253.9,275.6z"/>
<path class="st0" d="M212.6,343.8c-1-0.7-2.5-0.6-3.4,0.2c-0.5,0.5-0.9,1-1.4,1.5c-1.1-0.6-1.9-1.2-2.6-1.7c-1-0.7-2.5-0.6-3.4,0.2
	c-0.5,0.5-1,1.1-1.5,1.6c-1.2-0.7-2.1-1.3-2.9-1.8c-1-0.7-2.5-0.6-3.4,0.2c-7.3,7.3-9.1,17.3-9.1,17.3h7.7h7.3h23.3h7.7h7.3v-9.9
	C225,351.5,216.1,346.3,212.6,343.8z"/>
<path class="st0" d="M231.3,274.9c-2.1-2.5,1.8-29.5-13.7-22.9c-13.2,5.6-25.5,6-34.8,5.1c2-7,0.3-13.4-0.7-14.2
	c-1.4-1.1-2.6-4.2-4.4-6.6c-0.5-1-1.3-2-2.3-2.8c-3.8-3-13.7,2.4-13.7,2.4s3.9,0,6.2,3c0.9,1.1,2.2,2.2,3.7,3
	c1.1,2.3,1.3,4.5,1.3,4.5s-8,0.9-10.9,6.2c0,0-5.1-3.1-9-2.5c0,0-0.3-4.2-1.2-7.7c3-2.3,5.8-6.6,8.5-6.4c0,0-12.1-3.3-16.5-0.8
	c-1.7,1-2.1,2.5-2,3.9c-0.1,1.3-0.3,3.4-0.4,6.8c-0.3,10.6-6.1,14.5-1.7,16.5c1.2,0.6,3.4,2,6.2,3.5c0.7,0.7,1.7,1.5,3.1,2.4
	c14.5,8.7,50.3,20.4,88.1,17.9c0,0,9.1,0.8-3.7-4.6c0,0,5.8,0.4,7.5-2.5C242.6,276.1,233.4,277.4,231.3,274.9z"/>
<path class="st0" d="M167.7,225.4c0,0-0.5-1.5-1.9-2.1c2.3-2.5,1.4-5.6,1.4-5.6c-0.3,0-0.7,0-1.1,0.1c1.5-2.7,0.6-6,0.6-6
	c-0.4,0-0.8,0-1.3,0.1c-0.5-4.3-3.7-6-3.7-6c-0.3,0.2-0.7,0.6-1,1c-1.2-2.1-3.2-2.9-3.2-2.9c-1.3,0.7-2.1,2.1-2.6,3.3
	c-0.7-0.8-1.2-1.4-1.2-1.4c-2.5,2.2-2.9,5.2-2.8,7c-0.8-0.1-1.4-0.1-1.4-0.1c-0.1,2.8,0.8,4.8,1.6,6.1c-0.7-0.1-1.2-0.1-1.2-0.1
	c-0.1,3,1.2,4.8,2.1,5.8c-0.6,0.4-1.2,1.1-1.6,2.1c0,0,2.5-0.8,4.8,0.3c1.8,0.8,3.1,1.3,3.6,1.5c0.1,2.1,0.5,10,1,13.1
	c0,0,0.1,0.4,0.9,0.1c0.7-0.3,2.1,0.1,2.1,0.1s-1.7-9.5-2.1-13.3c0-0.2,0-0.5-0.1-0.7c0.6-0.3,1.4-0.7,2.1-1.1
	C164.8,225.6,166,225.2,167.7,225.4z"/>
<path class="st0" d="M517.1,121h-137c-6.3,0-11.7,4.4-12.9,10.6c-8,41-37.4,66.7-75.9,66.7c-26.5,0-31.2,14.9-32.4,25.5
	c-1.6,10.9,2.1,18,7.2,22.7c1.9,15.3,8.2,20.2,19.4,21.4c13.5,1.5,19.2,5,23.7-0.8c0,0,8.3-11.1,23.2-13.6c2.4-0.4,4.4-0.8,6.1-1.2
	c0.5-0.1,1-0.2,1.5-0.3c2.9-0.6,5.9-1.5,9.1-2.7l-0.8-2.5c0.7,1.3,2.3,1.9,3.7,1.3c2.6-1.1,5.4-2.4,8.2-4l-2.8-6.9l0.7,1.1
	c1.8,2.9,5.6,3.8,8.5,2c0.8-0.5,1.7-1.1,2.5-1.7l-4.9-10.3l1.2,1.9c2.8,4.2,8.5,5.1,12.4,2c0.9-0.7,1.9-1.5,2.8-2.3l-7.7-12.4
	l3.5,4.3c3.1,3.8,8.7,4.3,12.3,0.9c0.8-0.7,1.6-1.5,2.3-2.2l-11-13.5l6.5,6.3c3.3,3.3,8.7,3.2,11.9-0.2c0.8-0.9,1.7-1.8,2.6-2.7
	L386.5,196l8.2,6.3c1.4,1,9.2,6.1,16.6,0.1c0,0,0.1-0.1,0.1-0.1c0.8-0.7,1.6-1.5,2.4-2.3L392,184.1l10.9,6.5
	c7.9,4.7,17.5,5.6,26.2,2.5c2.1-0.7,4.2-1.4,6.4-2.1l-38.7-19.2l27.2,11.3c10.5,4.4,22.3,4.8,33.1,1.2c3-1,6-2.1,9-3.2l-65.4-21.2
	l58.2,15.7c9,2.4,18.6,1,26.5-3.9l0.1-0.1c3.3-2.1,6.5-4.3,9.5-6.6l-91.9-17.1l83.2,11.5c8.9,1.2,17.9-1.9,24-8.4
	c1.9-2.1,3.8-4.1,5.5-6.2l-111-9l89.9,3.5c17.4,0.7,33.6-9.1,41-24.9c0.1-0.3,0.2-0.4,0.2-0.4C531.1,122,517.1,121,517.1,121z"/>
<g>
	<path class="st0" d="M167,386.8h51.3v14.6l-4.3-3.4h-27.7v10.7h17.6l4.1-3.4v17.4l-4.1-3.4h-17.6v10.7h27.7l4.3-3.4v14.6H167
		l3.4-4.1v-46.2L167,386.8z"/>
	<path class="st0" d="M224.9,386.8h22.5l-3.2,4.1v39.1h25.6l4.7-3.3v14.6h-49.6l3.4-4.1v-46.3L224.9,386.8z"/>
	<path class="st0" d="M302,386.8h18.4l26.6,54.5h-22.7l3.2-4.1l-2.4-5.6h-26l-2.8,5.6l3.2,4.1h-19.7l24.2-50.4L302,386.8z
		 M302.7,421.6h18.2l-9-19.5L302.7,421.6z"/>
	<path class="st0" d="M384.1,441.4l-16.2-30.5v26.2l3.5,4.3H352c0-0.1,1.3-1.6,3.9-4.6v-46l-3-4h18.9l17.5,33l16.8-33h19.7l-3.7,4.2
		v47l2.8,3.3h-22.2l3.5-3.8v-25.2l-14.7,29H384.1z"/>
</g>
<g>
	<path class="st0" d="M154.2,488.8v-15.5h-6.1v-3.6h16.7v3.6h-6.1v15.5H154.2z"/>
	<path class="st0" d="M171.7,488.8h-4.4v-19.1h4.4V488.8z M180.7,481h-9.3v-3.7h9.3V481z M180.4,469.7h4.4v19.1h-4.4V469.7z"/>
	<path class="st0" d="M194,485.3h10.4v3.5h-14.8v-19.1h14.5v3.6H194V485.3z M193.7,477.4h9.2v3.4h-9.2V477.4z"/>
	<path class="st0" d="M216.2,488.8v-19.1h9.3c2.4,0,4.2,0.5,5.4,1.4c1.2,0.9,1.8,2.1,1.8,3.6c0,1-0.2,1.9-0.7,2.6
		c-0.5,0.7-1.2,1.3-2,1.7c-0.9,0.4-1.8,0.6-3,0.6l0.5-1.1c1.2,0,2.3,0.2,3.2,0.6c0.9,0.4,1.7,1,2.2,1.7s0.8,1.7,0.8,2.8
		c0,1.6-0.6,2.9-1.9,3.8c-1.3,0.9-3.2,1.4-5.7,1.4H216.2z M220.6,485.5h5.2c1.1,0,2-0.2,2.6-0.6c0.6-0.4,0.9-1,0.9-1.8
		c0-0.8-0.3-1.4-0.9-1.8c-0.6-0.4-1.5-0.6-2.6-0.6h-5.5v-3.2h4.7c1.1,0,1.9-0.2,2.5-0.6c0.6-0.4,0.9-0.9,0.9-1.7
		c0-0.7-0.3-1.3-0.9-1.7s-1.4-0.6-2.5-0.6h-4.4V485.5z"/>
	<path class="st0" d="M241.9,485.3h10.4v3.5h-14.8v-19.1h14.5v3.6h-10.1V485.3z M241.6,477.4h9.2v3.4h-9.2V477.4z"/>
	<path class="st0" d="M260.7,485.3h10.4v3.5h-14.8v-19.1h14.5v3.6h-10.1V485.3z M260.3,477.4h9.2v3.4h-9.2V477.4z"/>
	<path class="st0" d="M275,488.8v-19.1h8.3c1.7,0,3.2,0.3,4.4,0.8c1.2,0.6,2.2,1.4,2.9,2.4c0.7,1,1,2.3,1,3.7c0,1.4-0.3,2.6-1,3.7
		c-0.7,1-1.6,1.8-2.9,2.4c-1.2,0.5-2.7,0.8-4.4,0.8h-5.8l2-1.9v7.3H275z M279.4,482.1l-2-2.1h5.6c1.4,0,2.4-0.3,3.1-0.9
		c0.7-0.6,1-1.4,1-2.4c0-1.1-0.3-1.9-1-2.5c-0.7-0.6-1.7-0.9-3.1-0.9h-5.6l2-2.1V482.1z M287.2,488.8l-4.8-6.9h4.7l4.8,6.9H287.2z"
		/>
	<path class="st0" d="M303.4,488.8v-19.1h4.4v19.1H303.4z M307.3,484.5l-0.2-5.1l9.2-9.6h4.9l-8.3,8.9l-2.5,2.6L307.3,484.5z
		 M316.5,488.8l-6.8-8.3l2.9-3.1l9.1,11.5H316.5z"/>
	<path class="st0" d="M323.9,488.8v-19.1h4.4v19.1H323.9z"/>
	<path class="st0" d="M333.2,488.8v-19.1h3.7l11.3,13.8h-1.8v-13.8h4.4v19.1h-3.6l-11.3-13.8h1.8v13.8H333.2z"/>
	<path class="st0" d="M364.8,489.2c-1.5,0-2.9-0.2-4.2-0.7c-1.3-0.5-2.4-1.2-3.3-2.1c-0.9-0.9-1.7-1.9-2.2-3.1
		c-0.5-1.2-0.8-2.5-0.8-4c0-1.4,0.3-2.8,0.8-4s1.3-2.2,2.2-3.1c0.9-0.9,2.1-1.6,3.3-2.1c1.3-0.5,2.7-0.7,4.2-0.7
		c1.7,0,3.2,0.3,4.6,0.8s2.5,1.4,3.4,2.5l-2.8,2.6c-0.7-0.7-1.4-1.3-2.3-1.6c-0.8-0.4-1.7-0.5-2.7-0.5c-0.9,0-1.8,0.1-2.5,0.4
		c-0.8,0.3-1.4,0.7-2,1.3c-0.6,0.5-1,1.2-1.3,1.9c-0.3,0.7-0.5,1.6-0.5,2.5c0,0.9,0.2,1.7,0.5,2.5c0.3,0.7,0.7,1.4,1.3,2
		c0.6,0.6,1.2,1,2,1.3c0.8,0.3,1.6,0.4,2.5,0.4c0.9,0,1.7-0.1,2.6-0.4c0.8-0.3,1.6-0.8,2.4-1.4l2.5,3.2c-1,0.8-2.2,1.4-3.6,1.8
		C367.5,488.9,366.2,489.2,364.8,489.2z M368.5,486.2V479h4v7.8L368.5,486.2z"/>
	<path class="st0" d="M376.9,488.8v-19.1h8.7c2.1,0,3.9,0.4,5.5,1.2c1.6,0.8,2.8,1.9,3.7,3.3c0.9,1.4,1.3,3.1,1.3,5.1
		c0,1.9-0.4,3.6-1.3,5c-0.9,1.4-2.1,2.5-3.7,3.3c-1.6,0.8-3.4,1.2-5.5,1.2H376.9z M381.3,485.2h4c1.3,0,2.4-0.2,3.3-0.7
		c0.9-0.5,1.7-1.2,2.2-2.1s0.8-1.9,0.8-3.1c0-1.2-0.3-2.3-0.8-3.2c-0.5-0.9-1.2-1.6-2.2-2.1c-0.9-0.5-2-0.7-3.3-0.7h-4V485.2z"/>
	<path class="st0" d="M409.1,489.2c-1.5,0-2.9-0.2-4.2-0.7c-1.3-0.5-2.4-1.2-3.3-2.1c-0.9-0.9-1.7-1.9-2.2-3.1s-0.8-2.5-0.8-3.9
		c0-1.4,0.3-2.7,0.8-3.9c0.5-1.2,1.3-2.2,2.2-3.1c0.9-0.9,2.1-1.6,3.3-2.1s2.7-0.7,4.2-0.7c1.5,0,2.9,0.2,4.2,0.7
		c1.3,0.5,2.4,1.2,3.3,2.1c0.9,0.9,1.7,1.9,2.2,3.1c0.5,1.2,0.8,2.5,0.8,3.9c0,1.4-0.3,2.7-0.8,3.9c-0.5,1.2-1.3,2.3-2.2,3.1
		c-0.9,0.9-2,1.6-3.3,2.1C412,488.9,410.6,489.2,409.1,489.2z M409.1,485.4c0.9,0,1.6-0.1,2.4-0.4c0.7-0.3,1.4-0.7,1.9-1.3
		s1-1.2,1.3-1.9c0.3-0.7,0.5-1.6,0.5-2.5c0-0.9-0.1-1.7-0.5-2.5c-0.3-0.7-0.7-1.4-1.3-1.9c-0.5-0.5-1.2-1-1.9-1.3
		c-0.7-0.3-1.5-0.4-2.4-0.4c-0.9,0-1.6,0.1-2.4,0.4c-0.7,0.3-1.4,0.7-1.9,1.3c-0.5,0.5-1,1.2-1.3,1.9c-0.3,0.7-0.5,1.6-0.5,2.5
		c0,0.9,0.2,1.7,0.5,2.5c0.3,0.8,0.7,1.4,1.3,2c0.5,0.5,1.2,1,1.9,1.3C407.4,485.2,408.2,485.4,409.1,485.4z"/>
	<path class="st0" d="M423.2,488.8v-19.1h3.7l8.1,13.5H433l8-13.5h3.6l0.1,19.1h-4.2l0-12.8h0.8l-6.4,10.7h-2l-6.5-10.7h0.9v12.8
		H423.2z"/>
</g>
<g>
	<polygon class="st0" points="152.7,375.8 440.1,375.8 446.6,369.4 146.2,369.4 146.2,369.4 	"/>
	<polygon class="st0" points="440.1,452.4 152.7,452.4 152.7,452.4 146.2,458.8 146.2,458.8 446.6,458.8 	"/>
</g>
<path class="st0" d="M347.3,121c0,0-37.8,0-85.2,0c-16.5,0-17.2-9.5-17.2-9.5c0,15.9,13.8,16,15.3,16c1.4,0,35.8,0,38.7,0
	c-2,0-18.2,0.6-19.3,13.8c-1.2,14.1,14.1,19.5,27.4,25.8c13.3,6.2,8.3,13.3,8.3,13.3c6-5,10.9-10.2,14.8-15.3l-0.6-0.8
	c-3.5,2.3-7.4,3.2-11.5,2.1c-6.4-1.6-6-9.4,0.4-16.2c6.4-6.9,12.9-10.2,18.1-10.2c2.8,0,4,2.8,3.7,6.6h1
	C347.6,132.1,347.3,121,347.3,121z M311.8,130.1c-2.5,0-4.6-1.3-5.1-3h10.2C316.4,128.9,314.3,130.1,311.8,130.1z"/>
<g>
	<path class="st0" d="M229.1,183.9c3.7-8,8.6-16,14.6-23.9c-4.7-8.3-8.1-17.8-10.2-28.4c-1.2-6.2-6.6-10.6-12.9-10.6h-137
		c0,0-14,0.9-18.7-7.2c0,0,0.1,0.1,0.2,0.4c7.4,15.8,23.6,25.6,41,24.9l89.9-3.5l-111,9c1.7,2,3.5,4.1,5.5,6.2
		c6.2,6.5,15.1,9.7,24,8.4l83.2-11.5l-91.9,17.1c3,2.3,6.1,4.5,9.5,6.6l0.1,0.1c7.9,4.9,17.5,6.3,26.5,3.9l58.2-15.7L134.8,181
		c3,1.2,6,2.2,9,3.2c10.8,3.6,22.6,3.2,33.1-1.2l27.2-11.3L165.3,191c2.2,0.7,4.3,1.4,6.4,2.1c8.7,3.1,18.3,2.2,26.2-2.5l10.9-6.5
		L187,200c0.8,0.8,1.6,1.6,2.4,2.3c0,0,0.1,0.1,0.1,0.1c7.4,6.1,15.2,0.9,16.6-0.1l8.2-6.3l-14.8,14.4c0.9,0.9,1.7,1.8,2.6,2.7
		c3.2,3.4,8.6,3.5,11.9,0.2l6.5-6.3l-11,13.5c0.8,0.8,1.6,1.5,2.3,2.2c2.6,2.4,6.3,2.8,9.3,1.5C220.2,211.2,222.9,197.4,229.1,183.9
		z"/>
</g>
<path class="st0" d="M223.2,237.8c-2.8-10.3-3.1-21.2-1.1-32.2c-6.7,17.2-10.4,37.4-5.8,59.7c5.2,25.4,16.9,19.1,26.6,6.7
	C233.4,262.4,226.8,251,223.2,237.8z"/>
<path class="st0" d="M309.4,266.3c-4.5,5.8-18.3,1.4-23.3-2c-11.3-7.6-7.7-13-3.3-20.4c4.6-7.6,32.4-5.5,42.6,0.1
	c2.5-10.5,0.6-21.7-9.7-28.4c-17.8-11.5-51.1,14.7-55.2,45.2s-5.9,36.2-5.9,36.2s-23.7,27.1-42.4,64.2h32.7c0,0,9-21,27.5-39.5
	c18.2-18.2,32.6-25.1,36.4-33.5c0,0-7.2,0.3-11.2,3.1c0,0,5.3-4.7,5.6-7.8c0,0-5,1.2-7.2,2.8c0,0,6.5-11.2,18.4-22.8
	c0.2-0.2,0.4-0.4,0.6-0.6C311.3,264.9,309.4,266.3,309.4,266.3z"/>
<path class="st0" d="M467.4,200.6c4.6-2.9,9.1-6.8,9.1-6.8c-4.3,0.5-7.7,2.2-10.3,3.9c0.6-1,1.1-2.1,1.5-3.2c0,0-6.5,2.4-11.6,8.4
	c0.8-2.4,1.9-4.4,1.9-4.4s-6.3,3.7-10,10.9c1.2-4.5,1.6-6.7,2.9-8.7c-0.2,0.5-7.9,5.2-11,17.1c0,0,0,0-0.1,0
	c0.2-1.2,0.3-2.4,0.3-3.4c0-3.5,0.1-5.8,0.6-7.1c0,0-7,6.5-8.2,17.1c0-0.5,0-1,0-1.5c-0.1-4.7-0.7-8.4-0.3-10c0,0-5,4.8-5.6,15.7
	c-0.1,1.4-0.1,2.5-0.1,3.5c-0.1-0.5-0.1-0.9-0.3-1.4c-1.3-5.2-1.6-6.9-2.2-8c0,0-2.2,3.3-2.8,10.7c-0.1,1-0.1,1.8-0.1,2.6
	c-1.1-1.5-2.4-2.9-2.4-2.9s0.7,1.2,0.2,3.9c-0.4,1.9,0.1,4.2,1.2,5.2c-0.2,0.1-0.4,0.3-0.5,0.5c-1.1,1.1-1.2,1.9-1,2.3
	c-0.5,1-1,2-1.5,3c-6.5,13.7-3.8,28.3,5.1,40.2c7.2,9.7,16,19.9,16.3,32.4c0,16.8-16,28.7-32.1,27.9c-4-0.2-7.9-0.4-10-2.8
	c-1.1-2.1-0.3-5.1,0.7-7.6c0.1-0.2,0.1-0.3,0.2-0.5c0.1-0.4,0.3-0.7,0.4-1c0,0,0,0,0,0c3.9-9.7,6.4-18.5,7.3-26.3
	c1.2-7.8,0.9-16.3-1.9-25.1c-6.7-20.7-23.7-27.5-44.1-35.6c-1.6,0.8-3.1,1.5-4.6,2.2l0,0.1l-4,1.5c-3.3,1.2-6.6,2.2-9.7,2.9
	c-3.4,0.7-6.7,1.4-9.9,1.9c0,0,0,0,0,0c-8.8,1.6-14.8,4.2-18.2,6c-3.6,3.8-6.1,9.4-7.3,14.2l2.8-0.7l-0.6,6.2c0.4,0,0.8-0.1,0.9-0.1
	l7.3-0.3l-3,6.7c-1.3,2.9-3.5,5.6-6.4,8.3c4.2,1,8.6,1.8,13.2,2.6c4.8,0.8,9.3,1.7,13.5,2.7c-5.6-9.8-8.9-20.1-8.9-33.4v-2.8l2.1-1
	c0.4-0.3,10.4-4.7,26.5-3.2c3.7,0.3,6.9,1,9.7,2c-20.6-3.3-33.8,5-33.8,5c0,20.7,8.2,33.4,24.1,52.9c10.1,12.4,15.4,21.4,18.3,27.5
	c-11.3-1.1-22-3.5-29.9-7c-1.1-0.5-2.5-0.6-3.4,0.2c-0.2,0.2-0.4,0.4-0.5,0.6c-0.6-0.3-1.3-0.5-1.9-0.8c-1.1-0.5-2.5-0.6-3.4,0.2
	c-0.2,0.2-0.4,0.4-0.5,0.6c-0.6-0.3-1.3-0.5-1.9-0.8c-1.1-0.5-2.5-0.6-3.4,0.2c-7.3,7.3-9.1,17.3-9.1,17.3h5.8h5.8h45.1h5.8h4.3
	c0,0,0,0,0-0.1h0c0-1.5-0.1-3-0.2-4.5c0-0.3,0-0.5,0-0.8c-0.8-16.5-3.6-33-11.6-47.6c-3.1-5.6-6.7-11-10.5-16.2
	c-0.1-0.1-0.1-0.3,0-0.4c0.1-0.1,0.3-0.1,0.4,0c17.7,20.2,24.3,39.9,27,65.3c1,0.7,2.2,1.4,3.4,2c4.7,2.1,9.2,2.5,13.9,2.4
	c13.2,0,26.6-5.8,34.7-16.5c15.2-20.8,6.6-40.4-9.2-57.4c-2.6-3-5-5.4-7-8.3c-7.5-10-7.9-22.7-3.7-34.1c1.1-0.4,2.6-1,4.3-2.4
	c2-1.8,2.9-2.7,2.9-2.7s-1.5,0-3.3,0.3c0,0,0-0.1,0.1-0.1c6.9-1.8,12-6.8,12-6.8c-1.1,0.7-3.2,1-5,1.1c-0.1,0-0.2,0-0.2,0
	c1.2-0.6,2.2-1.1,2.6-1.3c1.9-1,5.5-2.6,10.9-6.4c0,0-2.7,0.1-6.5,0.1c3.1-1.7,6.5-3.8,7.8-4.8c2.3-1.7,6.2-3.1,6.2-3.1
	s-2.1,0.6-4.8,0.7c-1,0-2.1,0.1-3.3,0.2c5.7-2.7,13.8-7.2,13.8-7.2s-2.3,1.1-7.1,1.6c8.6-4.3,19.3-11.3,19.3-11.3s-2.6,1.1-6.4,2.4
	c4.3-2.7,7.9-5.5,7.9-5.5C470.5,200.1,468.9,200.3,467.4,200.6z"/>
<path class="st0" d="M320.8,317.3c12.5,9.8,20.5,17.6,25.5,23.6c4.8,1.8,10.6,3.2,16.9,4.3c-3-5-7.4-11.3-13.6-19
	c-4.8-6-9.2-11.5-12.8-16.9c-5.3-1.4-11.1-2.6-17.7-3.7c-4-0.7-7.8-1.4-11.5-2.2C310.5,307.8,314.7,312.4,320.8,317.3z"/>
<path class="st0" d="M313,360.5c0.1-0.4,1.5-8.1,6.7-15.4c-1.2-0.4-2.3-0.9-3.3-1.3c-1.1-0.5-2.5-0.6-3.4,0.2
	c-0.2,0.2-0.4,0.4-0.5,0.6c-0.6-0.3-1.3-0.5-1.9-0.8c-1.1-0.5-2.5-0.6-3.4,0.2c-0.2,0.2-0.4,0.4-0.5,0.6c-0.6-0.3-1.3-0.5-1.9-0.8
	c-1.1-0.5-2.5-0.6-3.4,0.2c-7.3,7.3-9.1,17.3-9.1,17.3h5.8h5.8h8.9L313,360.5z"/>
</svg>
